<svg xml:space="preserve" width="117.542" height="110.851" xmlns="http://www.w3.org/2000/svg"><path d="m149.738 595.809 41.047-24.743c-23.074-45.863-34.144-97.968-30.254-151.375l-48.488 29.231a335.967 335.967 0 0 0 4.777 48.891l-19.699 11.871 6.652 11.043 15.653-9.434c6.336 29.539 16.59 57.953 30.312 84.516zm537.625-324.086 41.047-24.746c-.664-.95-1.328-1.895-2-2.836l44.926-27.082-4.305-7.145-45.558 27.461a338.824 338.824 0 0 0-50.414-53.922l69.121-41.664-8.735-14.488-74.332 44.808a335.31 335.31 0 0 0-40.992-27.05l-48.492 29.226c49.043 21.496 89.953 55.621 119.734 97.438" style="fill:#2e3192;fill-opacity:1;fill-rule:evenodd;stroke:none" transform="matrix(.13333 0 0 -.13333 -1.772 117.096)"/><path d="m301.684 744.652 45.875-32.226c-71.383-26.949-127.086-80.016-158.707-145.274l-39.559 27.789a340.704 340.704 0 0 0 19.742 33.598l-54.023 32.566 9.093 15.09 55.114-33.222c22.996 30.859 51.301 57.91 83.98 79.625l-34.75 20.949 6.653 11.043 40.273-24.277a337.076 337.076 0 0 0 26.309 14.339zm439.707-308.875 45.847-32.207a335.703 335.703 0 0 0-3.133-21.867l110.754-66.762-9.613-15.953-105.148 63.383c-10.153-42.66-28.493-82.812-53.688-118.23l44.926-27.082-4.305-7.145-45.558 27.461a339.016 339.016 0 0 0-23.371-27.949l-39.567 27.797c51.199 52.476 81.68 123.394 82.856 198.554" style="fill:#ec008b;fill-opacity:1;fill-rule:evenodd;stroke:none" transform="matrix(.13333 0 0 -.13333 -1.772 117.096)"/><path d="m787.309 476.289-53.645 30.629c-.277 1.176-.539 2.352-.828 3.531-38.625 155.875-196.309 250.922-352.184 212.297a295.724 295.724 0 0 1-16.765-4.703l-53.653 30.633c18.645 8.472 38.329 15.359 58.926 20.461a334.637 334.637 0 0 0 13.887 3.136l-152.004 91.633 8.625 14.313 168.781-101.742c136.914 17.351 269.219-50.797 336.078-167.766l46.032-27.746-6.661-11.043-27.855 16.797c9.723-20.371 17.543-42.016 23.184-64.778a341.91 341.91 0 0 0 8.082-45.652" style="fill:#fef200;fill-opacity:1;fill-rule:evenodd;stroke:none" transform="matrix(.13333 0 0 -.13333 -1.772 117.096)"/><path d="m112.074 450.227 48.348-29.145a292.588 292.588 0 0 1 7.93-50.519c13.445-54.25 41.32-101.125 78.511-137.563l-101.73 61.32c-9.719 20.36-17.531 41.996-23.172 64.746a341.989 341.989 0 0 0-2.789 12.207L13.293 435.098l8.172 13.562 94.027-56.683a337.485 337.485 0 0 0-3.418 58.25zM568.91 174.84l48.348-29.145a336.708 336.708 0 0 0-45.887-21.523l75.719-45.645-8.223-13.64-87.097 52.508a340.975 340.975 0 0 0-19.739-5.52c-22.75-5.641-45.535-8.832-68.074-9.746l-101.73 61.328c49.593-15.875 104.058-18.637 158.308-5.195a292.598 292.598 0 0 1 48.375 16.578" style="fill:#00adef;fill-opacity:1;fill-rule:evenodd;stroke:none" transform="matrix(.13333 0 0 -.13333 -1.772 117.096)"/><path d="m128.789 335.238 68.363-37.394c53.926-95.918 158.864-154.149 270.02-147.676l68.387-37.402c-1.176-.305-2.352-.598-3.528-.891-33.91-8.406-67.898-11.375-101.039-9.465l64.879-39.11-9.922-16.46-102.371 61.711c-94.527 19.148-177.887 78.285-226.652 163.281l-36.047 21.734 6.652 11.039 17.817-10.738a338.407 338.407 0 0 0-16.559 41.371" style="fill:#00a652;fill-opacity:1;fill-rule:evenodd;stroke:none" transform="matrix(.13333 0 0 -.13333 -1.772 117.096)"/><path d="m330.32 757.031 55.039-33.179c-1.57-.364-3.136-.715-4.707-1.106-46.347-11.484-87.316-33.496-120.992-62.859l-42.695 25.742a337.112 337.112 0 0 0 46.234 36.969l-34.75 20.949 6.653 11.043 40.273-24.277a336.46 336.46 0 0 0 54.945 26.718zm401.293-241.906 55.043-33.18a336.203 336.203 0 0 0-2.551-100.242l110.754-66.762-9.613-15.953-105.148 63.383a329.39 329.39 0 0 0-3.649-14.008l-42.699 25.739c10.234 43.492 10.57 89.996-.914 136.347-.387 1.567-.809 3.117-1.223 4.676" style="fill:#ed1b24;fill-opacity:1;fill-rule:evenodd;stroke:none" transform="matrix(.13333 0 0 -.13333 -1.772 117.096)"/><path d="M243.293 553.273v-59.441c1.094-2.621.316-5.141 3.168-11.312 4.195-9.079 12.004-17.418 22.477-20.219l-.028-89.977v-27.969c.008-5.472.699-30.718-.707-34.921-1.027-3.082-2-6.106-3.058-9.188-2.04-5.965-3.832-11.805-5.868-17.715-1.8-5.246-5.547-13.406-3.406-18.992 2.02-5.266 7.902-9.68 15.164-7.379 6.582 2.086 7.61 6.938 9.961 14.035.371 1.125 10.859 34.672 12.27 35.606.328 3.242 4.976 19.054 6.773 20.812.063 2.035 1.652 6.321 2.414 8.18 2.098 8.582 9.735 19.543-.211 26.898l-1.676 1.473-.285-.07-6.824 1.156-.035 95.926 29.57.066.078-145.047 263.668.004.071 145.02 22.336-.207-.059-89.711c-3.852 1.457-3.664 2.394-9.242 2.191-6.949-1.582-7.551-4.121-10.242-9.179-.614-6.602 2.082-11.778 3.906-17.442 3.73-11.578 13.574-39.254 16.023-48.707.86-1.859 5.707-16.172 5.653-18.043 1.105-1.148 1.554-3.387 2.129-5.133.695-2.105 1.679-3.703 2.214-5.457l.414-.445c1.75-.813.872-.586 2.375-1.738.883-.68 1.379-.922 2.403-1.34 2.363-.957 4.297-.942 7.144-.758 1.117.398 1.992.555 3.043 1.086 1.649.836 1.739 1.375 3.149 1.824.629 1.297.668 1.625 2.093 2.469.395 3.223 1.836 3.738 1.403 8.699l-6.055 19.25-2.808 7.988c.703.75-.012.266.968.297l.157 154.641c6.96 1.684 9.957 2.031 15.644 5.527 18.27 11.215 17.324 27.961 17.324 45.856 0 7.785.387 36.226-.336 41.75-2.289 17.457-13.472 23.16-15.789 26.265l-2.011 1.184c-3.582.945-6.887 3.523-11.153 3.937v.004c-8.465 2.309-29.226.489-39.383.981-.558 3.672.153 7.976-.351 11.844-.793 6.132-2.711 6.66-2.914 9.199-1.891 1.219-1.906 2.644-3.778 4.062-8.558 7.953-20.41 5.91-34.089 5.91H359.629c-5.34 0-10.664.301-15.727.368h-3.496c-11.754-.176-21.715-2.407-26.613-13.938-2.848-6.695-.844-10.941-1.855-17.465-9.454-.285-32.118 1.2-39.68-1.027-4.082-.484-7.246-2.707-10.594-3.762l-2.277-1.308c-.446-.61-.215-.344-.739-.879-.011-.012-.773-.684-.785-.699-13.8-11.215-12.316-20.422-14.57-25.04zm338.211 32.622-255.211.097c-.734 4.879-.703 11.891 1.965 14.723 3.004 3.191 9.101 2.32 14.418 2.32l203.469-.004c5.652.004 11.304 0 16.957 0 2.832.004 13.425.782 15.64-.867 5.637-.012 5.684-9.539 5.078-15.391-.918-.988.711-.644-2.316-.878zm-225.691-58.891c3.398 3.918 3.304 4.851 7.566 4.832 16.621-.09 33.34.227 49.941-.008l8.953-.015 9.418-.004 9.422.004 9.418-.004 9.422.004 9.422-.004 9.418.004 9.422-.004 9.418.004 9.418-.004 9.89.023 9.418-.004 9.422.004 14.133-.121c1.313-1.324 2.754-2.734 3.914-4.133 3.106-3.738 7.988-8.023 10.777-12.781 4.997-8.535 5.833-13.422 8.18-23.938.606-2.671.653-18.203-.019-23.089l-.11-138.403-235.293.102c-.761 4.656-.16 15.539-.16 20.867v105.031c0 6.766-1.398 36.922 1.395 40.434-.293 3.156 1.316 5.715 1.992 8.754 2.984 6.84 4.902 11.636 9.383 16.043zm6.339-17.66c-5.23-1.684-9.492-13.594 5.957-13.559 5.02.016 10.047.012 15.071.008 16.605-.051 161.429-.586 164.613.352 2.449.722 4.699 3.39 4.785 6.371.258 8.879-10.348 7.234-19.148 7.254-17.258.043-168.106.597-171.278-.426" style="fill:#fff;fill-opacity:1;fill-rule:evenodd;stroke:none" transform="matrix(.13333 0 0 -.13333 -1.772 117.096)"/></svg>