<svg xmlns="http://www.w3.org/2000/svg" height="64" width="469.333" xml:space="preserve"><path style="fill:#fefefe;fill-opacity:1;fill-rule:evenodd;stroke:none" d="M185.875 128.594h56v282.719h182.031v59.5H3.812v-59.5h182.063V128.594M626.188 34.625h56v282.703h182.031v59.516H444.188v-59.516h182V34.625" transform="matrix(.13333 0 0 -.13333 0 64)"/><path style="fill:#fefefe;fill-opacity:1;fill-rule:nonzero;stroke:none" d="M1538.28 128.609h-56.03v282.704h-312.69V128.609h-56v249.219c0 51.453 39.1 92.985 87.5 92.985h249.69c48.44 0 87.53-41.532 87.53-92.985V128.609M1980.56 411.313h-312.75V188.125h312.75zm55.97-189.719c0-51.453-39.06-93-87.5-93h-281.22V2.125h-56v468.688h337.22c48.44 0 87.5-41.516 87.5-92.985V221.594M2166.09 171.391l264.29 285.172c11.65 12.406 27.43 19.843 44.93 19.843 35 0 63-29.765 63-66.953V128.594h-56v299.453L2218 142.875c-11.69-12.406-27.41-19.844-44.91-19.844-35 0-63.03 29.766-63.03 66.953v280.829h56.03V171.391M3036.56 128.609h-55.97v141.36h-312.75v-141.36h-56v342.204h56V329.469h312.75v141.344h55.97V128.609M3513.81 411.313h-182V128.594h-56.03v282.719h-182v59.531h420.03v-59.531" transform="matrix(.13333 0 0 -.13333 0 64)"/></svg>