<svg xmlns="http://www.w3.org/2000/svg" height="32" width="42.667" xml:space="preserve"><path style="fill:#000;fill-opacity:1;fill-rule:evenodd;stroke:none" d="M313.031 218.031c0 3.68-1.472 7.028-3.843 9.461-2.372 2.43-5.645 3.938-9.247 3.938H19.066c-3.597 0-6.875-1.508-9.246-3.926a13.55 13.55 0 0 1-3.843-9.473V18.059c0-3.688 1.472-7.04 3.851-9.47 2.375-2.417 5.649-3.929 9.238-3.929h280.875c3.59 0 6.864 1.512 9.247 3.942a13.519 13.519 0 0 1 3.843 9.457zm-296.844 1.34a7.529 7.529 0 0 0 5.332 2.223h275.969a7.58 7.58 0 0 0 5.34-2.215 7.556 7.556 0 0 0 2.211-5.34V22.051a7.556 7.556 0 0 0-2.211-5.34 7.563 7.563 0 0 0-5.34-2.211H21.519a7.504 7.504 0 0 0-5.332 2.219 7.53 7.53 0 0 0-2.214 5.332v191.988c0 2.078.847 3.969 2.214 5.332" transform="matrix(.13333 0 0 -.13333 0 32)"/><path style="fill:#000;fill-opacity:1;fill-rule:evenodd;stroke:none" d="m22.066 209.027-3.668 1.539c-.042-62.875-.03-125.75-.03-188.629l97.89 93.958-47.133 47.421-6.16 6.379c-12.184 12.696-35.621 37.11-40.899 39.332zm1.586-174.668.032 167.106c8.105-6.934 25.574-25.133 35.46-35.438l6.215-6.433 43.344-43.61-85.05-81.625m30.066 151.153c26.3-26.973 63.39-64.199 69.765-70.578 5.59-5.586 9.996-10.2 13.707-14.082 10.844-11.344 16.176-16.926 22.25-16.985 5.93-.058 10.856 5.102 20.547 15.258 4 4.184 8.86 9.27 14.852 15.141 6.211 6.086 11.914 12.066 17.637 18.082 4.675 4.906 9.375 9.847 14.203 14.687 8.496 8.531 16.351 16.543 24.504 24.863l7.531 7.68c2.035 2.078 5.41 5.281 9.176 8.856 9.714 9.23 22.074 20.976 23.558 25.187l1.235 3.516c-88.743 0-177.493.031-266.239-.035l1.215-3.5c.543-1.579 11.586-13.243 26.059-28.09zm73.523-66.824c-6.512 6.511-44.117 44.246-69.73 70.515-9.617 9.863-17.625 18.152-21.781 22.613l248.207.036c-4.18-4.832-12.665-12.895-19.7-19.575-3.746-3.558-7.097-6.738-9.3-8.988l-7.528-7.68c-8.16-8.324-16.015-16.343-24.484-24.839-5.028-5.043-9.672-9.922-14.285-14.766-5.746-6.035-11.469-12.039-17.512-17.961-6.164-6.031-10.996-11.098-14.977-15.27-8.644-9.05-13.039-13.652-16.668-13.617-3.816.035-8.644 5.082-18.453 15.348-3.871 4.047-8.465 8.859-13.789 14.184m75.324-2.583c21.907-21.359 47.36-48.96 70.012-68.257 1.594-1.438 4.078-3.864 6.817-6.535 6.113-5.973 13.55-13.231 17.296-15.446l3.997-2.363-.051 187.062-3.66-1.527c-5.61-2.351-29.118-26.855-51.528-50.211-17.258-17.984-33.859-35.293-40.601-40.844zm73.633-64.398-65.761 64.117c7.921 7.121 23.105 22.949 38.828 39.332 18.429 19.207 37.609 39.203 46.086 46.36l.043-168.02c-3.567 3.074-8.243 7.64-12.313 11.61-2.648 2.593-5.055 4.937-6.883 6.601" transform="matrix(.13333 0 0 -.13333 0 32)"/><path style="fill:#000;fill-opacity:1;fill-rule:evenodd;stroke:none" d="M295.168 19.121c-24.91 24.36-49.758 50.164-75.477 73.477-6.195 5.613-12.109 10.972-18.125 17.097l-1.425 1.453-1.766-1.007c-4.289-2.442-8.805-7.457-13.687-12.875-7.661-8.496-16.297-18.082-24.602-18.34-8.934-.27-18.008 9.754-25.949 18.539-4.836 5.351-9.301 10.285-13.504 12.676l-1.762 1.007-1.43-1.453c-6.589-6.711-13.242-12.695-20.332-19.074l-1.859-1.668c-4.5-4.055-8.691-8.344-12.887-12.637-3.144-3.218-6.3-6.449-9.68-9.652l-6.324-5.926C54 49.207 30.691 27.457 28.008 23.118l-2.45-3.97 4.669-.062c62.379-.852 130.101-.586 195.261-.324 23.227.078 46.45.062 69.68.36zm-95.844 85.317c5.508-5.508 11.039-10.52 16.809-15.758l4.664-4.239 61.535-60.191-56.867-.2c-63.16-.25-128.734-.51-189.512.25 7.363 7.692 24.195 23.4 34.016 32.563l6.37 5.965c3.349 3.176 6.59 6.496 9.817 9.797 4.094 4.191 8.188 8.379 12.64 12.387l1.856 1.672c6.571 5.914 12.774 11.488 19.032 17.754 3.121-2.325 6.699-6.282 10.535-10.52 8.707-9.629 18.656-20.629 30.011-20.277 10.594.324 20.032 10.793 28.399 20.078 3.887 4.316 7.535 8.363 10.695 10.719" transform="matrix(.13333 0 0 -.13333 0 32)"/><path style="fill:#ef7f1a;fill-opacity:1;fill-rule:evenodd;stroke:none" d="M28.008 23.117C30.69 27.457 54 49.207 66.359 60.738l6.325 5.926c3.379 3.203 6.535 6.434 9.68 9.652 4.195 4.293 8.386 8.582 12.886 12.637l1.86 1.668c7.089 6.379 13.742 12.363 20.331 19.074l1.43 1.453 1.762-1.007c4.203-2.391 8.668-7.325 13.504-12.676 7.941-8.785 17.015-18.809 25.949-18.54 8.305.259 16.941 9.844 24.602 18.34 4.882 5.419 9.398 10.434 13.687 12.876l1.766 1.007 1.425-1.453c6.016-6.125 11.93-11.484 18.125-17.097 25.719-23.313 50.567-49.118 75.477-73.477-23.23-.297-46.453-.281-69.68-.36-65.16-.261-132.882-.527-195.261.325l-4.668.062zm272.68.387-3.997 2.363c-3.746 2.215-11.183 9.473-17.296 15.445-2.739 2.672-5.223 5.098-6.817 6.536-22.652 19.297-48.105 46.898-70.012 68.257l2.282 1.879c6.742 5.551 23.343 22.86 40.601 40.844 22.41 23.356 45.918 47.86 51.528 50.211l3.66 1.527zm-184.43 92.391-97.89-93.957c0 62.878-.013 125.753.03 188.628l3.668-1.539c5.278-2.222 28.715-26.636 40.899-39.332l6.16-6.379zM21.519 221.594a7.529 7.529 0 0 1-5.332-2.223 7.52 7.52 0 0 1-2.218-5.332V22.051c0-2.074.851-3.965 2.218-5.332A7.51 7.51 0 0 1 21.52 14.5h275.969c2.075 0 3.969.848 5.336 2.21a7.543 7.543 0 0 1 2.215 5.34V214.04a7.563 7.563 0 0 1-7.551 7.555zm6.141-7.992-1.215 3.5c88.746.066 177.496.035 266.239.035l-1.235-3.516c-1.484-4.211-13.844-15.957-23.558-25.187-3.766-3.575-7.141-6.778-9.176-8.856l-7.531-7.68c-8.153-8.32-16.008-16.332-24.504-24.863-4.828-4.84-9.528-9.781-14.203-14.687-5.723-6.016-11.426-11.996-17.637-18.082-5.992-5.871-10.852-10.957-14.852-15.141-9.691-10.156-14.617-15.316-20.547-15.258-6.074.059-11.406 5.64-22.25 16.985-3.711 3.882-8.117 8.496-13.707 14.082-6.375 6.379-43.465 43.605-69.765 70.578-14.473 14.847-25.516 26.511-26.059 28.09" transform="matrix(.13333 0 0 -.13333 0 32)"/></svg>