<svg xmlns="http://www.w3.org/2000/svg" height="32" width="21.333" xml:space="preserve"><path style="fill:#000;fill-opacity:1;fill-rule:nonzero;stroke:none" d="M32.879 198.465c-11.922-12.922-19.3-30.797-19.3-50.567 0-2.882.152-5.668.433-8.343a76.488 76.488 0 0 1 1.336-8.196l.015-.089c.024-.129 7.602-44.137 63.739-110.922 56.136 66.789 63.726 110.84 63.75 110.968l.015.09a77.65 77.65 0 0 1 1.328 8.168c.282 2.668.43 5.449.43 8.324 0 19.77-7.379 37.645-19.301 50.567-11.84 12.836-28.183 20.773-46.222 20.773-18.036 0-34.38-7.937-46.223-20.773zm100.078 7.801c13.688-14.832 22.156-35.309 22.156-57.899a89.82 89.82 0 0 0-.511-9.476 89.684 89.684 0 0 0-1.497-9.332c-.496-2.618-10.16-51.317-71.035-122.438l-2.968-3.469-2.97 3.47c-60.87 71.12-70.53 119.776-71.015 122.394a85.82 85.82 0 0 0-1.512 9.343 89.467 89.467 0 0 0-.515 9.508c0 22.59 8.469 43.067 22.156 57.899 13.766 14.925 32.809 24.156 53.856 24.156 21.043 0 40.089-9.231 53.855-24.156" transform="matrix(.13333 0 0 -.13333 0 32)"/><path style="fill:#ef7f1a;fill-opacity:1;fill-rule:evenodd;stroke:none" d="M144.195 139.574c.282 2.668.43 5.449.43 8.324 0 19.77-7.379 37.645-19.301 50.567-11.84 12.836-28.183 20.773-46.222 20.773-18.036 0-34.38-7.937-46.223-20.773-11.922-12.922-19.3-30.797-19.3-50.567 0-2.882.151-5.668.433-8.343a76.488 76.488 0 0 1 1.336-8.196l.015-.089c.024-.129 7.602-44.137 63.739-110.922 56.136 66.789 63.726 110.84 63.75 110.968l.015.09a77.65 77.65 0 0 1 1.328 8.168zm-21.484 12.856c0-23.934-19.402-43.34-43.336-43.34-23.938 0-43.34 19.406-43.34 43.34 0 23.933 19.402 43.336 43.34 43.336 23.934 0 43.336-19.403 43.336-43.336" transform="matrix(.13333 0 0 -.13333 0 32)"/><path style="fill:#000;fill-opacity:1;fill-rule:evenodd;stroke:none" d="M79.375 109.09c23.934 0 43.336 19.406 43.336 43.34 0 23.933-19.402 43.336-43.336 43.336-23.938 0-43.34-19.403-43.34-43.336 0-23.934 19.403-43.34 43.34-43.34zm0 16.453c-14.852 0-26.89 12.035-26.89 26.887 0 14.847 12.038 26.89 26.89 26.89s26.891-12.043 26.891-26.89c0-14.852-12.04-26.887-26.891-26.887" transform="matrix(.13333 0 0 -.13333 0 32)"/></svg>