<svg xmlns="http://www.w3.org/2000/svg" height="32" width="25.333" xml:space="preserve"><path style="fill:#000;fill-opacity:1;fill-rule:evenodd;stroke:none" d="M78.79 55.535C41.64 92.008 17.8 141.93 12.27 194.871c-.524 4.973-.11 6.367 2.71 8.832 6.094 5.348 15.301 10.5 22.97 13.578 6.202 2.492 13.714 5.828 16.683-1.683l13.125-35.223c4.262-11.664 5.05-8.941-7.145-23.992-7.37-9.106-7.554-7.531-3.984-16.168 10.379-25.106 27.789-48.813 44.199-64.73 4.824-4.68 5.512-3.419 17.652.3 16.063 4.918 13.083 4.465 20.989-2.457 1.222-1.074 2.207-1.75 3.375-2.937 1.347-1.371 1.785-1.778 3.047-2.844 1.23-1.04 2.035-1.988 3.234-3.07l18.945-17.22c5.793-6.167 1.102-9.769-3.906-15.452-5-5.676-13.129-12.008-20.207-15.98-6.363-3.579-8.242-1.962-16.809 3.093-10.898 6.434-19.656 12.184-28.933 19.469-7.133 5.597-13 10.836-19.426 17.148zm27.472 28.696c-6.953 7.265-12.739 13.898-18.047 21.039-5.309 7.136-10.172 14.824-15.262 24.183-.703 1.293-2.809 5.207-4.676 9.113-1.62 3.395-3.05 6.637-3.02 7.461l11.497 14.625c2.941 3.727 4.027 6.93 3.965 10.317-.063 3.301-1.207 6.625-2.735 10.773l-7.191 19.309-2.453 6.699c-1.555 4.316-3.102 8.594-4.828 12.648-1.356 3.172-4.04 6.321-7.672 8.211-3.027 1.575-6.73 2.297-10.887 1.461-5.789-1.168-11.84-3.554-17.469-6.398-7.16-3.617-13.683-8-18.16-11.586-3.18-2.551-5.191-4.988-6.261-8.203-1.043-3.141-1.145-6.93-.532-12.231 2.586-22.363 7.68-42.316 15.133-60.972 7.445-18.645 17.258-36 29.293-53.211 1.887-2.7 3.684-4.988 5.524-7.313l.132-.172c5.36-6.8 10.266-12.378 15.461-17.71 5.188-5.325 10.633-10.364 17.098-16.114 5.031-4.476 11.336-9.293 17.914-13.86 7.105-4.929 14.543-9.573 21.055-13.19 5.687-3.157 9.593-5.31 14.011-5.45 4.403-.14 9.036 1.735 16.036 6.64 4.531 3.177 12.14 8.99 17.988 15.177 4.012 4.238 7.222 8.695 8.14 12.687 2.317 10.09-4.328 15.828-11.269 21.813a153.597 153.597 0 0 0-3.633 3.207l-2.824 2.68a139.121 139.121 0 0 1-4.106 3.85l-2.312 2.114c-1.512 1.383-3.047 2.793-4.594 4.102-2.637 2.226-4.73 4.176-6.504 5.824-9.719 9.035-10.57 9.824-35.625 1.816-1.957-.62-2.09-.488-3.117.586l-.07.075" transform="matrix(.13333 0 0 -.13333 0 32)"/><path style="fill:#ef7f1a;fill-opacity:1;fill-rule:evenodd;stroke:none" d="M12.27 194.871C17.8 141.93 41.64 92.008 78.79 55.535c6.425-6.312 12.292-11.55 19.425-17.148 9.277-7.285 18.035-13.035 28.933-19.469 8.567-5.055 10.446-6.672 16.809-3.094 7.078 3.973 15.207 10.305 20.207 15.98 5.008 5.684 9.699 9.286 3.906 15.454l-18.945 17.219c-1.199 1.082-2.004 2.03-3.234 3.07-1.262 1.066-1.7 1.473-3.047 2.844-1.168 1.187-2.153 1.863-3.375 2.937-7.906 6.922-4.926 7.375-20.989 2.457-12.14-3.719-12.828-4.98-17.652-.3-16.41 15.917-33.82 39.624-44.2 64.73-3.57 8.637-3.386 7.062 3.985 16.168 12.196 15.051 11.406 12.328 7.145 23.992l-13.125 35.223c-2.969 7.511-10.48 4.175-16.684 1.683-7.668-3.078-16.875-8.23-22.969-13.578-2.82-2.465-3.234-3.859-2.71-8.832m109.71-48.039c14.586-4.551 17.649-12.875 19.719-18.512.824-2.238 1.371-3.718 2.856-3.359.605.144.773.789.742 1.539-.063 1.582-.793 3.566-1.371 4.957a32.364 32.364 0 0 1-5.426 8.731c-2.207 2.527-4.797 4.71-7.637 6.324-1.133.64-3.871 2.027-6.386 2.836-1.27.41-2.368.672-2.809.55-.516-.14-.883-.406-1.09-.714a1.307 1.307 0 0 1-.223-.684c-.003-.242.071-.5.211-.73.235-.375.707-.715 1.414-.938m39.567 21.383c8.266-7.863 14.527-17.824 17.914-29.043l.402-1.488c.27-1.028.575-2.168.953-3.012.352-.793.95-1.34 2.157-.805 1.023.453.363 3.625-.696 7.028-1.382 4.453-3.695 9.105-4.636 10.918-3.254 6.292-7.27 11.886-11.957 16.73-4.754 4.902-10.207 9.078-16.27 12.465-2.051 1.144-8.301 4.293-13.637 5.918-2.675.812-4.941 1.269-5.726.82-.387-.219-.684-.508-.84-.808-.102-.196-.152-.391-.133-.559.024-.172.133-.375.332-.574.406-.399 1.102-.762 2.137-1.024a67.57 67.57 0 0 0 30-16.566" transform="matrix(.13333 0 0 -.13333 0 32)"/><path style="fill:#000;fill-opacity:1;fill-rule:evenodd;stroke:none" d="M145.297 126.5c.031-.75-.137-1.395-.742-1.539-1.485-.359-2.032 1.121-2.856 3.359-2.07 5.637-5.133 13.961-19.719 18.512-.707.223-1.179.563-1.414.938-.14.23-.214.488-.211.73 0 .223.083.465.223.684.207.308.574.574 1.09.714.441.122 1.539-.14 2.809-.55 2.515-.809 5.253-2.196 6.386-2.836 2.84-1.614 5.43-3.797 7.637-6.324a32.364 32.364 0 0 0 5.426-8.731c.578-1.391 1.308-3.375 1.371-4.957zm5.578.219c-.102 2.472-1.039 5.09-1.781 6.879a38.3 38.3 0 0 1-6.375 10.257c-2.594 2.981-5.672 5.567-9.102 7.508-1.304.742-4.488 2.352-7.433 3.301-2.168.703-4.348 1.063-5.985.613-1.922-.527-3.363-1.636-4.281-3.011a6.878 6.878 0 0 1-.078-7.469c.914-1.445 2.406-2.656 4.476-3.301 11.95-3.726 14.446-10.512 16.129-15.101 1.86-5.051 3.094-8.391 9.418-6.86 4 .965 5.153 3.879 5.012 7.184m24.848 5.683c1.582-3.554 4.195-6.004 9.523-3.629 4.559 2.036 4.207 7.875 2.371 13.786-1.515 4.867-4 9.867-5.004 11.812-3.496 6.746-7.84 12.781-12.929 18.059-5.118 5.289-11.004 9.797-17.563 13.457-2.191 1.226-8.91 4.605-14.726 6.375-4 1.218-7.79 1.672-10.118.34-1.308-.747-2.343-1.813-2.988-3.016a6.477 6.477 0 0 1-.742-3.949c.18-1.36.805-2.684 1.949-3.813 1.078-1.066 2.629-1.945 4.695-2.469a61.958 61.958 0 0 0 27.504-15.187c7.575-7.207 13.313-16.32 16.407-26.59l.359-1.312c.32-1.223.676-2.571 1.262-3.864zm5.093 2.27c-.378.844-.683 1.984-.953 3.012l-.402 1.488c-3.387 11.219-9.648 21.18-17.914 29.043a67.57 67.57 0 0 1-30 16.566c-1.035.262-1.731.625-2.137 1.024-.199.199-.308.402-.332.574-.019.168.031.363.133.559.156.3.453.589.84.808.785.449 3.051-.008 5.726-.82 5.336-1.625 11.586-4.774 13.637-5.918 6.063-3.387 11.516-7.563 16.27-12.465 4.687-4.844 8.703-10.438 11.957-16.73.941-1.813 3.254-6.465 4.636-10.918 1.059-3.403 1.719-6.575.696-7.028-1.207-.535-1.805.012-2.157.805" transform="matrix(.13333 0 0 -.13333 0 32)"/></svg>