<svg xmlns="http://www.w3.org/2000/svg" height="32" width="32" xml:space="preserve"><path style="fill:#ef7f1a;fill-opacity:1;fill-rule:evenodd;stroke:none" d="M114.016 222.02c56.707 0 102.679-45.973 102.679-102.68 0-56.707-45.972-102.676-102.679-102.676S11.336 62.633 11.336 119.34s45.973 102.68 102.68 102.68zm0-7.93c52.328 0 94.746-42.422 94.746-94.75 0-52.324-42.418-94.742-94.746-94.742-52.328 0-94.746 42.418-94.746 94.742 0 52.328 42.418 94.75 94.746 94.75" transform="matrix(.13333 0 0 -.13333 0 32)"/><path style="fill:#000;fill-opacity:1;fill-rule:evenodd;stroke:none" d="M114.016 230.469c61.379 0 111.129-49.75 111.129-111.129 0-61.375-49.75-111.13-111.129-111.13-61.375 0-111.13 49.755-111.13 111.13 0 61.379 49.755 111.129 111.13 111.129zm0-8.582c56.632 0 102.543-45.914 102.543-102.547 0-56.633-45.911-102.543-102.543-102.543-56.633 0-102.543 45.91-102.543 102.543 0 56.633 45.91 102.547 102.543 102.547" transform="matrix(.13333 0 0 -.13333 0 32)"/><path style="fill:#000;fill-opacity:1;fill-rule:evenodd;stroke:none" d="M114.016 214.16c52.367 0 94.816-42.453 94.816-94.82 0-52.367-42.449-94.817-94.816-94.817-52.368 0-94.817 42.45-94.817 94.817 0 52.367 42.45 94.82 94.817 94.82zm0-7.324c48.32 0 87.496-39.172 87.496-87.496 0-48.317-39.176-87.492-87.496-87.492-48.32 0-87.493 39.175-87.493 87.492 0 48.324 39.172 87.496 87.493 87.496" transform="matrix(.13333 0 0 -.13333 0 32)"/><path style="fill:#000;fill-opacity:1;fill-rule:evenodd;stroke:none" d="M106.852 118.883c-.207 1.324 1.211 4.496 1.89 5.265 3.602 4.098 11.844 2.325 12.305-4.453.586-8.609-12.699-10.496-14.195-.812zm3.574 14.308c-5.449-1.269-10.73-6.339-10.73-12.964l.449-4.918c-1.766-.411-11.61-6.43-14.336-8.02-6.778-3.949-2.504-7.625.476-7.625 1.938 0 14.653 7.914 17.438 9.387 4.523-3.031 4.582-4.024 11.172-4.024 7.179 0 13.414 7.043 13.414 12.965 0 7.574-3.34 13.477-10.731 15.199v34.872c.004 4.242.758 8.492-3.574 8.492-4.211 0-3.586-3.907-3.578-8.043v-35.321M42.023 79.992c0-2.637 2.852-5.031 6.977-2.504 2.852 1.742 6.883 3.153 6.883 6.078 0 2.637-2.848 5.032-6.973 2.508-1.12-.683-1.777-1.031-2.84-1.633-1.566-.886-4.047-2.027-4.047-4.449m0 78.684c0-2.375 2.512-3.582 4.043-4.453 2.598-1.485 3.953-2.703 6.243-2.703 2 0 7.336 3.613-.47 8.027-3.296 1.867-3.75 2.703-6.683 2.703-1.476 0-3.133-2.082-3.133-3.574m130.098-3.578c0-1.957 1.457-3.578 4.024-3.578 0 0 10.304 3.132 9.683 7.445-.453 3.18-3.398 4.312-6.824 2.215-2.848-1.746-6.883-3.153-6.883-6.082m-25.93 26.375c0-3 3.782-7.481 8.024.023.539.949.848 1.594 1.457 2.57 2.953 4.731-.016 7.243-2.328 7.243-2.371 0-3.578-2.504-4.453-4.039-1.086-1.903-2.7-4.145-2.7-5.797m-75.105 6.707c0-3.051 4.062-10.731 7.152-10.731 2.637 0 5.031 2.852 2.504 6.977-.687 1.125-1.023 1.789-1.629 2.844-4.613 8.097-8.027 1.753-8.027.91m0-136.801c0-3.024 3.77-7.45 8.027.02.543.949.84 1.585 1.453 2.57 2.817 4.511.301 7.246-2.328 7.246-3.281 0-7.152-8.668-7.152-9.836m-39.344 67.953c0-4.676 5.36-3.578 10.73-3.578 4.801 0 4.801 7.156 0 7.156-5.37 0-10.73 1.098-10.73-3.578m150.211 0c0-4.676 5.36-3.578 10.731-3.578 4.8 0 4.8 7.156 0 7.156-5.371 0-10.731 1.098-10.731-3.578m-71.527-71.527c0-5.375-1.098-10.73 3.578-10.73 4.672 0 3.574 5.355 3.574 10.73 0 4.797-7.152 4.797-7.152 0m0 150.211c0-5.375-1.098-10.727 3.578-10.727 4.672 0 3.574 5.352 3.574 10.727 0 4.8-7.152 4.8-7.152 0m71.906-98.047c26.586 0 48.137-21.551 48.137-48.133 0-26.59-21.551-48.137-48.137-48.137-26.586 0-48.137 21.547-48.137 48.137 0 26.582 21.551 48.133 48.137 48.133" transform="matrix(.13333 0 0 -.13333 0 32)"/><path style="fill:#ef7f1a;fill-opacity:1;fill-rule:evenodd;stroke:none" d="M182.332 91.46c21.883 0 39.625-17.741 39.625-39.624 0-21.887-17.742-39.629-39.625-39.629s-39.625 17.742-39.625 39.629c0 21.883 17.742 39.625 39.625 39.625" transform="matrix(.13333 0 0 -.13333 0 32)"/><path style="fill:#000;fill-opacity:1;fill-rule:nonzero;stroke:none" d="m155.699 41.77 7.153.785c.171-1.457.628-2.543 1.355-3.242.727-.711 1.691-1.06 2.887-1.06 1.511 0 2.797.708 3.851 2.114 1.059 1.41 1.731 4.332 2.028 8.75-1.856-2.152-4.168-3.226-6.953-3.226-3.024 0-5.641 1.168-7.84 3.504-2.192 2.336-3.289 5.375-3.289 9.125 0 3.906 1.16 7.054 3.48 9.437 2.32 2.395 5.281 3.586 8.867 3.586 3.899 0 7.106-1.512 9.606-4.54 2.5-3.026 3.758-8 3.758-14.94 0-7.04-1.305-12.133-3.899-15.254-2.601-3.125-5.992-4.688-10.168-4.688-3.004 0-5.422.809-7.277 2.422-1.844 1.605-3.039 4.012-3.559 7.227zm16.621 16.148c0 2.379-.55 4.223-1.644 5.531-1.082 1.309-2.348 1.961-3.778 1.961-1.363 0-2.496-.535-3.39-1.61-.906-1.077-1.352-2.835-1.352-5.269 0-2.484.489-4.304 1.469-5.468.977-1.157 2.195-1.743 3.664-1.743 1.418 0 2.609.559 3.578 1.676.965 1.121 1.453 2.766 1.453 4.922zm13.567 9.684V36.066c0-2.386 1.558-3.945 3.941-3.945 6.902 0 2.656 11.418 4.133 16.566 1.164 4.055 6.34 4.055 7.504 0 1.476-5.148-2.77-16.566 4.133-16.566 5.597 0 3.941 7.773 3.941 16.754 0 5.543-5.297 10.844-10.84 10.844l-4.929-.496c0 5.433 1.41 12.32-3.942 12.32-2.383 0-3.941-1.559-3.941-3.941" transform="matrix(.13333 0 0 -.13333 0 32)"/></svg>